<svg aria-hidden="true" style="position: absolute; width: 0; height: 0; overflow: hidden;" version="1.1" xmlns="http://www.w3.org/2000/svg" xmlns:xlink="http://www.w3.org/1999/xlink">
<defs>

<symbol id="icon-heart" viewBox="0 0 32 32">
<path stroke-linejoin="round" stroke-linecap="round" stroke-miterlimit="4" stroke-width="1.5" d="M11 7c-2.761 0-5 2.216-5 4.95 0 2.207 0.875 7.445 9.488 12.74 0.154 0.094 0.331 0.143 0.512 0.143s0.358-0.050 0.512-0.143c8.613-5.295 9.488-10.533 9.488-12.74 0-2.734-2.239-4.95-5-4.95s-5 3-5 3c0 0-2.239-3-5-3z"></path>
</symbol>

<symbol id="icon-korzina" viewBox="0 0 32 32">
<path stroke-linejoin="round" stroke-linecap="round" stroke-miterlimit="4" stroke-width="1.5" d="M11 27c0.552 0 1-0.448 1-1s-0.448-1-1-1c-0.552 0-1 0.448-1 1s0.448 1 1 1z"></path>
<path stroke-linejoin="round" stroke-linecap="round" stroke-miterlimit="4" stroke-width="1.5" d="M25 27c0.552 0 1-0.448 1-1s-0.448-1-1-1c-0.552 0-1 0.448-1 1s0.448 1 1 1z"></path>
<path stroke-linejoin="round" stroke-linecap="round" stroke-miterlimit="4" stroke-width="1.5" d="M3 5h4l3 17h16"></path>
<path stroke-linejoin="round" stroke-linecap="round" stroke-miterlimit="4" stroke-width="1.5" d="M10 16.667h15.59c0.116 0 0.228-0.040 0.317-0.113s0.151-0.175 0.173-0.289l1.8-9c0.015-0.073 0.013-0.147-0.005-0.219s-0.052-0.139-0.099-0.196c-0.047-0.057-0.106-0.103-0.173-0.135s-0.14-0.048-0.214-0.048h-19.39"></path>
</symbol>

<symbol id="icon-search" viewBox="0 0 32 32">
<path d="M31.008 27.231l-7.58-6.447c-0.784-0.705-1.622-1.029-2.299-0.998 1.789-2.096 2.87-4.815 2.87-7.787 0-6.627-5.373-12-12-12s-12 5.373-12 12 5.373 12 12 12c2.972 0 5.691-1.081 7.787-2.87-0.031 0.677 0.293 1.515 0.998 2.299l6.447 7.58c1.104 1.226 2.907 1.33 4.007 0.23s0.997-2.903-0.23-4.007zM12 20c-4.418 0-8-3.582-8-8s3.582-8 8-8 8 3.582 8 8-3.582 8-8 8z"></path>
</symbol>

<symbol id="icon-icons-arrow-right" viewBox="0 0 32 32">
<path stroke-linejoin="round" stroke-linecap="round" stroke-miterlimit="4" stroke-width="2" d="M4.667 16h22M26.667 16l-9.333-9.333M26.667 16l-9.333 9.333"></path>
</symbol>
</defs>

</svg>
